<?xml version="1.0" encoding="iso-8859-1"?>
<!-- Uploaded to: SVG Repo, www.svgrepo.com, Generator: SVG Repo Mixer Tools -->
<svg height="800px" width="800px" version="1.1" id="Layer_1" xmlns="http://www.w3.org/2000/svg" xmlns:xlink="http://www.w3.org/1999/xlink" 
	 viewBox="0 0 512 512" xml:space="preserve">
<g transform="translate(1 1)">
	<path style="fill:#1cb4e3;" d="M297.667,161.133h-76.8v76.8L178.2,203.8l-42.667,34.133v-76.8h-76.8
		c-18.773,0-34.133,15.36-34.133,34.133V383c0,18.773,15.36,34.133,34.133,34.133h238.933c18.773,0,34.133-15.36,34.133-34.133
		V195.267C331.8,176.493,316.44,161.133,297.667,161.133"/>
	<path style="fill:#FFFFFF;" d="M50.2,383V195.267c0-18.773,15.36-34.133,34.133-34.133h-25.6c-18.773,0-34.133,15.36-34.133,34.133
		V383c0,18.773,15.36,34.133,34.133,34.133h25.6C65.56,417.133,50.2,401.773,50.2,383"/>
	<path style="fill:#1cb4e3;" d="M451.267,16.067H340.333v102.4l-51.2-42.667l-51.2,42.667v-102.4H127
		c-18.773,0-34.133,15.36-34.133,34.133v110.933h42.667v76.8L178.2,203.8l42.667,34.133v-76.8h76.8
		c18.773,0,34.133,15.36,34.133,34.133V383c0,18.773-15.36,34.133-34.133,34.133h153.6c18.773,0,34.133-15.36,34.133-34.133V50.2
		C485.4,31.427,470.04,16.067,451.267,16.067"/>
	<path style="fill:#0a799b;" d="M451.267,16.067h-25.6c18.773,0,34.133,15.36,34.133,34.133V383
		c0,18.773-15.36,34.133-34.133,34.133h25.6c18.773,0,34.133-15.36,34.133-34.133V50.2C485.4,31.427,470.04,16.067,451.267,16.067"
		/>
	<g>
		<polygon style="fill:#FFDD09;" points="340.333,118.467 289.133,75.8 237.933,118.467 237.933,7.533 340.333,7.533 		"/>
		<polygon style="fill:#FFDD09;" points="220.867,237.933 178.2,203.8 135.533,237.933 135.533,144.067 220.867,144.067 		"/>
	</g>
	<polygon style="fill:#FFDD09;" points="7.533,468.333 502.467,468.333 502.467,417.133 7.533,417.133 	"/>
	<polygon style="fill:#FCC309;" points="476.867,468.333 502.467,468.333 502.467,417.133 476.867,417.133 	"/>
	<g>
		<polygon style="fill:#FFDD09;" points="24.6,502.467 92.867,502.467 92.867,468.333 24.6,468.333 		"/>
		<polygon style="fill:#FFDD09;" points="417.133,502.467 485.4,502.467 485.4,468.333 417.133,468.333 		"/>
	</g>
	<polygon style="fill:#FCC309;" points="459.8,502.467 485.4,502.467 485.4,468.333 459.8,468.333 	"/>
	<g>
		<polygon style="fill:#FFFFFF;" points="7.533,468.333 33.133,468.333 33.133,417.133 7.533,417.133 		"/>
		<polygon style="fill:#FFFFFF;" points="24.6,502.467 50.2,502.467 50.2,468.333 24.6,468.333 		"/>
	</g>
	<polygon style="fill:#FFDD09;" points="220.867,502.467 289.133,502.467 289.133,468.333 220.867,468.333 	"/>
	<path d="M340.333,127c-1.707,0-4.267-0.853-5.12-1.707l-46.08-38.4l-46.08,38.4c-2.56,1.707-5.973,2.56-9.387,0.853
		c-2.56-1.707-4.267-4.267-4.267-7.68V7.533c0-5.12,3.413-8.533,8.533-8.533h102.4c5.12,0,8.533,3.413,8.533,8.533v110.933
		c0,3.413-1.707,5.973-5.12,7.68C342.893,127,341.187,127,340.333,127z M289.133,67.267c1.707,0,4.267,0.853,5.12,1.707
		l37.547,30.72V16.067h-85.333v84.48l37.547-30.72C284.867,68.12,287.427,67.267,289.133,67.267z"/>
	<path d="M442.733,391.533H403.48c-5.12,0-8.533-3.413-8.533-8.533c0-5.12,3.413-8.533,8.533-8.533h39.253
		c5.12,0,8.533,3.413,8.533,8.533C451.267,388.12,447.853,391.533,442.733,391.533z"/>
	<path d="M442.733,357.4h-58.88c-5.12,0-8.533-3.413-8.533-8.533c0-5.12,3.413-8.533,8.533-8.533h58.88
		c5.12,0,8.533,3.413,8.533,8.533C451.267,353.987,447.853,357.4,442.733,357.4z"/>
	<path d="M502.467,476.867H7.533c-5.12,0-8.533-3.413-8.533-8.533v-51.2c0-5.12,3.413-8.533,8.533-8.533h494.933
		c5.12,0,8.533,3.413,8.533,8.533v51.2C511,473.453,507.587,476.867,502.467,476.867z M16.067,459.8h477.867v-34.133H16.067V459.8z"
		/>
	<path d="M92.867,511H24.6c-5.12,0-8.533-3.413-8.533-8.533v-34.133c0-5.12,3.413-8.533,8.533-8.533h68.267
		c5.12,0,8.533,3.413,8.533,8.533v34.133C101.4,507.587,97.987,511,92.867,511z M33.133,493.933h51.2v-17.067h-51.2V493.933z"/>
	<path d="M485.4,511h-68.267c-5.12,0-8.533-3.413-8.533-8.533v-34.133c0-5.12,3.413-8.533,8.533-8.533H485.4
		c5.12,0,8.533,3.413,8.533,8.533v34.133C493.933,507.587,490.52,511,485.4,511z M425.667,493.933h51.2v-17.067h-51.2V493.933z"/>
	<path d="M289.133,511h-68.267c-5.12,0-8.533-3.413-8.533-8.533v-34.133c0-5.12,3.413-8.533,8.533-8.533h68.267
		c5.12,0,8.533,3.413,8.533,8.533v34.133C297.667,507.587,294.253,511,289.133,511z M229.4,493.933h51.2v-17.067h-51.2V493.933z"/>
	<path d="M220.867,246.467c-1.707,0-3.413-0.853-5.12-1.707L178.2,214.893l-37.547,29.867c-2.56,1.707-5.973,2.56-9.387,0.853
		c-2.56-1.707-4.267-4.267-4.267-7.68v-93.867c0-5.12,3.413-8.533,8.533-8.533h85.333c5.12,0,8.533,3.413,8.533,8.533v93.867
		c0,3.413-1.707,5.973-5.12,7.68C223.427,246.467,221.72,246.467,220.867,246.467z M178.2,195.267c1.707,0,3.413,0.853,5.12,1.707
		l29.013,23.04V152.6h-68.267v67.413l29.013-23.04C174.787,196.12,176.493,195.267,178.2,195.267z"/>
	<path d="M297.667,425.667H58.733c-23.893,0-42.667-18.773-42.667-42.667V195.267c0-23.893,18.773-42.667,42.667-42.667h76.8
		c5.12,0,8.533,3.413,8.533,8.533v58.88l29.013-23.04c3.413-2.56,7.68-2.56,10.24,0l29.013,23.04v-58.88
		c0-5.12,3.413-8.533,8.533-8.533h76.8c23.893,0,42.667,18.773,42.667,42.667V383C340.333,406.893,321.56,425.667,297.667,425.667z
		 M58.733,169.667c-14.507,0-25.6,11.093-25.6,25.6V383c0,14.507,11.093,25.6,25.6,25.6h238.933c14.507,0,25.6-11.093,25.6-25.6
		V195.267c0-14.507-11.093-25.6-25.6-25.6H229.4v68.267c0,3.413-1.707,5.973-5.12,7.68c-2.56,1.707-6.827,0.853-9.387-0.853
		L178.2,214.893l-37.547,29.867c-2.56,1.707-5.973,2.56-9.387,0.853c-2.56-1.707-4.267-4.267-4.267-7.68v-68.267H58.733z"/>
	<path d="M297.667,391.533h-25.6c-5.12,0-8.533-3.413-8.533-8.533c0-5.12,3.413-8.533,8.533-8.533h25.6
		c5.12,0,8.533,3.413,8.533,8.533C306.2,388.12,302.787,391.533,297.667,391.533z"/>
	<path d="M297.667,357.4H255c-5.12,0-8.533-3.413-8.533-8.533c0-5.12,3.413-8.533,8.533-8.533h42.667
		c5.12,0,8.533,3.413,8.533,8.533C306.2,353.987,302.787,357.4,297.667,357.4z"/>
	<path d="M451.267,425.667h-153.6c-5.12,0-8.533-3.413-8.533-8.533s3.413-8.533,8.533-8.533c14.507,0,25.6-11.093,25.6-25.6V195.267
		c0-14.507-11.093-25.6-25.6-25.6H229.4v68.267c0,3.413-1.707,5.973-5.12,7.68c-2.56,1.707-6.827,0.853-9.387-0.853L178.2,214.893
		l-37.547,29.867c-2.56,1.707-5.973,2.56-9.387,0.853c-2.56-1.707-4.267-4.267-4.267-7.68v-68.267H92.867
		c-5.12,0-8.533-3.413-8.533-8.533V50.2c0-23.893,18.773-42.667,42.667-42.667h110.933c5.12,0,8.533,3.413,8.533,8.533v84.48
		l37.547-30.72c3.413-2.56,7.68-2.56,11.093,0l37.547,30.72v-84.48c0-5.12,3.413-8.533,8.533-8.533H452.12
		c23.893,0,42.667,18.773,42.667,42.667V383C493.933,406.893,475.16,425.667,451.267,425.667z M331.8,408.6h119.467
		c14.507,0,25.6-11.093,25.6-25.6V50.2c0-14.507-11.093-25.6-25.6-25.6h-102.4v93.867c0,3.413-1.707,5.973-5.12,7.68
		c-3.413,1.707-6.827,0.853-9.387-0.853l-45.227-38.4l-46.08,38.4c-2.56,1.707-5.973,2.56-9.387,0.853
		c-2.56-1.707-4.267-4.267-4.267-7.68V24.6H127c-14.507,0-25.6,11.093-25.6,25.6v102.4h34.133c5.12,0,8.533,3.413,8.533,8.533v58.88
		l29.013-23.04c3.413-2.56,7.68-2.56,10.24,0l29.013,23.04v-58.88c0-5.12,3.413-8.533,8.533-8.533h76.8
		c23.893,0,42.667,18.773,42.667,42.667V383C340.333,392.387,336.92,401.773,331.8,408.6z"/>
</g>
</svg>