<?xml version="1.0" encoding="iso-8859-1"?>
<!-- Uploaded to: SVG Repo, www.svgrepo.com, Generator: SVG Repo Mixer Tools -->
<svg height="800px" width="800px" version="1.1" id="Layer_1" xmlns="http://www.w3.org/2000/svg" xmlns:xlink="http://www.w3.org/1999/xlink" 
	 viewBox="0 0 512 512" xml:space="preserve">
<g transform="translate(1 1)">
	<path style="fill:#1cb4e3;" d="M58.733,417.133h136.533c18.773,0,34.133-15.36,34.133-34.133V178.2
		c0-18.773-15.36-34.133-34.133-34.133H152.6V203.8L127,186.733L101.4,203.8v-59.733H58.733c-18.773,0-34.133,15.36-34.133,34.133
		V383C24.6,401.773,39.96,417.133,58.733,417.133"/>
	<path style="fill:#FFFFFF;" d="M50.2,383V178.2c0-18.773,15.36-34.133,34.133-34.133h-25.6c-18.773,0-34.133,15.36-34.133,34.133
		V383c0,18.773,15.36,34.133,34.133,34.133h25.6C65.56,417.133,50.2,401.773,50.2,383"/>
	<g>
		<path style="fill:#1cb4e3;" d="M229.4,383c0,16.213-11.093,29.013-25.6,33.28v0.853h153.6c18.773,0,34.133-15.36,34.133-34.133
			V263.533c0-18.773-15.36-34.133-34.133-34.133h-34.133v59.733l-25.6-17.067l-25.6,17.067V229.4H229.4V383z"/>
		<path style="fill:#1cb4e3;" d="M459.8,16.067H383V101.4l-42.667-34.133L297.667,101.4V16.067h-76.8
			c-18.773,0-34.133,15.36-34.133,34.133v93.867h8.533c6.827,0,13.653,2.56,18.773,5.973c3.413,2.56,6.827,5.973,9.387,9.387
			c3.413,5.12,5.973,11.947,5.973,18.773v34.133V383c0,18.773-15.36,34.133-34.133,34.133H459.8
			c18.773,0,34.133-15.36,34.133-34.133V50.2C493.933,31.427,478.573,16.067,459.8,16.067"/>
	</g>
	<path style="fill:#0a799b;" d="M459.8,16.067h-25.6c18.773,0,34.133,15.36,34.133,34.133V383c0,18.773-15.36,34.133-34.133,34.133
		h25.6c18.773,0,34.133-15.36,34.133-34.133V50.2C493.933,31.427,478.573,16.067,459.8,16.067"/>
	<g>
		<polygon style="fill:#ffdd09;" points="383,101.4 340.333,67.267 297.667,101.4 297.667,7.533 383,7.533 		"/>
		<polygon style="fill:#ffdd09;" points="152.6,203.8 127,186.733 101.4,203.8 101.4,135.533 152.6,135.533 		"/>
		<polygon style="fill:#ffdd09;" points="323.267,289.133 297.667,272.067 272.067,289.133 272.067,220.867 323.267,220.867 		"/>
	</g>
	<polygon style="fill:#FCC309;" points="7.533,468.333 502.467,468.333 502.467,417.133 7.533,417.133 	"/>
	<polygon style="fill:#FD9808;" points="476.867,468.333 502.467,468.333 502.467,417.133 476.867,417.133 	"/>
	<g>
		<polygon style="fill:#FCC309;" points="24.6,502.467 92.867,502.467 92.867,468.333 24.6,468.333 		"/>
		<polygon style="fill:#FCC309;" points="417.133,502.467 485.4,502.467 485.4,468.333 417.133,468.333 		"/>
	</g>
	<polygon style="fill:#FD9808;" points="459.8,502.467 485.4,502.467 485.4,468.333 459.8,468.333 	"/>
	<g>
		<polygon style="fill:#FFFFFF;" points="7.533,468.333 33.133,468.333 33.133,417.133 7.533,417.133 		"/>
		<polygon style="fill:#FFFFFF;" points="24.6,502.467 50.2,502.467 50.2,468.333 24.6,468.333 		"/>
	</g>
	<polygon style="fill:#FCC309;" points="220.867,502.467 289.133,502.467 289.133,468.333 220.867,468.333 	"/>
	<path d="M383,109.933c-1.707,0-3.413-0.853-5.12-1.707L340.333,78.36l-37.547,29.867c-2.56,1.707-5.973,2.56-9.387,0.853
		c-2.56-1.707-4.267-4.267-4.267-7.68V7.533c0-5.12,3.413-8.533,8.533-8.533H383c5.12,0,8.533,3.413,8.533,8.533V101.4
		c0,3.413-1.707,5.973-5.12,7.68C385.56,109.933,383.853,109.933,383,109.933z M340.333,58.733c1.707,0,3.413,0.853,5.12,1.707
		l29.013,23.04V16.067H306.2V83.48l29.013-23.04C336.92,59.587,338.627,58.733,340.333,58.733z"/>
	<path d="M459.8,391.533h-25.6c-5.12,0-8.533-3.413-8.533-8.533c0-5.12,3.413-8.533,8.533-8.533h25.6
		c5.12,0,8.533,3.413,8.533,8.533C468.333,388.12,464.92,391.533,459.8,391.533z"/>
	<path d="M459.8,357.4h-42.667c-5.12,0-8.533-3.413-8.533-8.533c0-5.12,3.413-8.533,8.533-8.533H459.8
		c5.12,0,8.533,3.413,8.533,8.533C468.333,353.987,464.92,357.4,459.8,357.4z"/>
	<path d="M357.4,400.067h-17.067c-5.12,0-8.533-3.413-8.533-8.533s3.413-8.533,8.533-8.533H357.4c5.12,0,8.533,3.413,8.533,8.533
		S362.52,400.067,357.4,400.067z"/>
	<path d="M357.4,374.467h-34.133c-5.12,0-8.533-3.413-8.533-8.533s3.413-8.533,8.533-8.533H357.4c5.12,0,8.533,3.413,8.533,8.533
		S362.52,374.467,357.4,374.467z"/>
	<path d="M195.267,400.067H178.2c-5.12,0-8.533-3.413-8.533-8.533S173.08,383,178.2,383h17.067c5.12,0,8.533,3.413,8.533,8.533
		S200.387,400.067,195.267,400.067z"/>
	<path d="M195.267,374.467h-34.133c-5.12,0-8.533-3.413-8.533-8.533s3.413-8.533,8.533-8.533h34.133c5.12,0,8.533,3.413,8.533,8.533
		S200.387,374.467,195.267,374.467z"/>
	<path d="M502.467,476.867H7.533c-5.12,0-8.533-3.413-8.533-8.533v-51.2c0-5.12,3.413-8.533,8.533-8.533h494.933
		c5.12,0,8.533,3.413,8.533,8.533v51.2C511,473.453,507.587,476.867,502.467,476.867z M16.067,459.8h477.867v-34.133H16.067V459.8z"
		/>
	<path d="M92.867,511H24.6c-5.12,0-8.533-3.413-8.533-8.533v-34.133c0-5.12,3.413-8.533,8.533-8.533h68.267
		c5.12,0,8.533,3.413,8.533,8.533v34.133C101.4,507.587,97.987,511,92.867,511z M33.133,493.933h51.2v-17.067h-51.2V493.933z"/>
	<path d="M485.4,511h-68.267c-5.12,0-8.533-3.413-8.533-8.533v-34.133c0-5.12,3.413-8.533,8.533-8.533H485.4
		c5.12,0,8.533,3.413,8.533,8.533v34.133C493.933,507.587,490.52,511,485.4,511z M425.667,493.933h51.2v-17.067h-51.2V493.933z"/>
	<path d="M289.133,511h-68.267c-5.12,0-8.533-3.413-8.533-8.533v-34.133c0-5.12,3.413-8.533,8.533-8.533h68.267
		c5.12,0,8.533,3.413,8.533,8.533v34.133C297.667,507.587,294.253,511,289.133,511z M229.4,493.933h51.2v-17.067h-51.2V493.933z"/>
	<path d="M152.6,212.333c-1.707,0-3.413-0.853-5.12-1.707L127,196.973l-20.48,13.653c-2.56,1.707-5.973,1.707-8.533,0
		c-3.413-0.853-5.12-3.413-5.12-6.827v-68.267c0-5.12,3.413-8.533,8.533-8.533h51.2c5.12,0,8.533,3.413,8.533,8.533V203.8
		c0,3.413-1.707,5.973-4.267,7.68C155.16,212.333,154.307,212.333,152.6,212.333z M127,178.2c1.707,0,3.413,0.853,5.12,1.707
		l11.947,8.533v-44.373h-34.133v43.52l11.947-8.533C123.587,179.053,125.293,178.2,127,178.2z"/>
	<path d="M195.267,425.667H58.733c-23.893,0-42.667-18.773-42.667-42.667V178.2c0-23.893,18.773-42.667,42.667-42.667H101.4
		c5.12,0,8.533,3.413,8.533,8.533v43.52l11.947-8.533c2.56-1.707,6.827-1.707,9.387,0l11.947,8.533v-43.52
		c0-5.12,3.413-8.533,8.533-8.533h42.667c23.893,0,42.667,18.773,42.667,42.667V383C237.933,406.893,219.16,425.667,195.267,425.667
		z M58.733,152.6c-14.507,0-25.6,11.093-25.6,25.6V383c0,14.507,11.093,25.6,25.6,25.6h136.533c14.507,0,25.6-11.093,25.6-25.6
		V178.2c0-14.507-11.093-25.6-25.6-25.6h-34.133v51.2c0,3.413-1.707,5.973-4.267,7.68c-2.56,1.707-5.973,1.707-8.533,0L127,196.973
		l-20.48,13.653c-2.56,1.707-5.973,1.707-8.533,0c-3.413-0.853-5.12-3.413-5.12-6.827v-51.2H58.733z"/>
	<path d="M323.267,297.667c-1.707,0-3.413-0.853-5.12-1.707l-20.48-13.653l-20.48,13.653c-2.56,1.707-5.973,1.707-8.533,0
		c-2.56-1.707-5.12-3.413-5.12-6.827v-68.267c0-5.12,3.413-8.533,8.533-8.533h51.2c5.12,0,8.533,3.413,8.533,8.533v68.267
		c0,3.413-1.707,5.973-4.267,7.68C325.827,297.667,324.973,297.667,323.267,297.667z M297.667,263.533
		c1.707,0,3.413,0.853,5.12,1.707l11.947,8.533V229.4H280.6v43.52l11.947-8.533C294.253,264.387,295.96,263.533,297.667,263.533z"/>
	<path d="M357.4,425.667H203.8c-5.12,0-8.533-3.413-8.533-8.533v-0.853c0-4.267,2.56-7.68,5.973-8.533
		c11.093-2.56,19.627-12.8,19.627-24.747V229.4c0-5.12,3.413-8.533,8.533-8.533h42.667c5.12,0,8.533,3.413,8.533,8.533v43.52
		l11.947-8.533c2.56-1.707,6.827-1.707,9.387,0l11.947,8.533V229.4c0-5.12,3.413-8.533,8.533-8.533h34.133
		c23.893,0,42.667,18.773,42.667,42.667V383C400.067,406.893,381.293,425.667,357.4,425.667z M203.8,416.28L203.8,416.28
		L203.8,416.28z M229.4,408.6h128c14.507,0,25.6-11.093,25.6-25.6V263.533c0-14.507-11.093-25.6-25.6-25.6h-25.6v51.2
		c0,3.413-1.707,5.973-4.267,7.68c-2.56,1.707-5.973,1.707-8.533,0l-21.333-14.507l-20.48,13.653c-2.56,1.707-5.973,1.707-8.533,0
		c-2.56-1.707-5.12-3.413-5.12-6.827v-51.2h-25.6V383C237.933,392.387,234.52,401.773,229.4,408.6z"/>
	<path d="M459.8,425.667H195.267c-5.12,0-8.533-3.413-8.533-8.533s3.413-8.533,8.533-8.533c14.507,0,25.6-11.093,25.6-25.6V178.2
		c0-5.12-1.707-10.24-4.267-14.507c-1.707-2.56-4.267-5.12-6.827-6.827c-4.267-2.56-9.387-4.267-14.507-4.267h-8.533
		c-5.12,0-8.533-3.413-8.533-8.533V50.2c0-23.893,18.773-42.667,42.667-42.667h76.8c5.12,0,8.533,3.413,8.533,8.533V83.48
		l29.013-23.04c3.413-2.56,7.68-2.56,10.24,0l29.013,23.04V16.067c0-5.12,3.413-8.533,8.533-8.533h76.8
		c23.893,0,42.667,18.773,42.667,42.667V383C502.467,406.893,483.693,425.667,459.8,425.667z M229.4,408.6h230.4
		c14.507,0,25.6-11.093,25.6-25.6V50.2c0-14.507-11.093-25.6-25.6-25.6h-68.267v76.8c0,3.413-1.707,5.973-5.12,7.68
		c-2.56,1.707-6.827,0.853-9.387-0.853L340.333,78.36l-37.547,29.867c-2.56,1.707-5.973,2.56-9.387,0.853
		c-2.56-1.707-4.267-4.267-4.267-7.68V24.6h-68.267c-14.507,0-25.6,11.093-25.6,25.6v85.333c8.533,0,17.067,2.56,23.893,7.68
		c4.267,3.413,8.533,6.827,11.093,11.093c5.12,6.827,7.68,15.36,7.68,23.893V383C237.933,392.387,234.52,401.773,229.4,408.6z"/>
</g>
</svg>